<mxfile host="Electron" modified="2023-09-16T09:01:45.389Z" agent="Mozilla/5.0 (Windows NT 10.0; Win64; x64) AppleWebKit/537.36 (KHTML, like Gecko) draw.io/21.6.8 Chrome/114.0.5735.289 Electron/25.5.0 Safari/537.36" etag="IwUg6ldaKmrcnhoKltgO" version="21.6.8" type="device">
  <diagram name="Page-1" id="LV25uTZEzMQIWffcLbLp">
    <mxGraphModel dx="2268" dy="916" grid="1" gridSize="10" guides="1" tooltips="1" connect="1" arrows="1" fold="1" page="1" pageScale="1" pageWidth="850" pageHeight="1100" math="0" shadow="0">
      <root>
        <mxCell id="0" />
        <mxCell id="1" parent="0" />
        <mxCell id="gfmQNd7Zofw6Jux4Y-8F-1" value="" style="rounded=0;whiteSpace=wrap;html=1;dashed=1;fillColor=none;" vertex="1" parent="1">
          <mxGeometry x="160" y="40" width="740" height="670" as="geometry" />
        </mxCell>
        <mxCell id="gfmQNd7Zofw6Jux4Y-8F-31" value="" style="rounded=0;whiteSpace=wrap;html=1;fillColor=none;dashed=1;dashPattern=8 8;" vertex="1" parent="1">
          <mxGeometry x="960" y="130" width="230" height="580" as="geometry" />
        </mxCell>
        <mxCell id="gfmQNd7Zofw6Jux4Y-8F-20" value="" style="rounded=0;whiteSpace=wrap;html=1;fillColor=none;dashed=1;dashPattern=8 8;" vertex="1" parent="1">
          <mxGeometry x="1005" y="190" width="140" height="278" as="geometry" />
        </mxCell>
        <mxCell id="gfmQNd7Zofw6Jux4Y-8F-2" value="ThirdPartyAndEmailIntegrationMicroservice" style="text;html=1;strokeColor=none;fillColor=none;align=center;verticalAlign=middle;whiteSpace=wrap;rounded=0;fontSize=15;" vertex="1" parent="1">
          <mxGeometry x="310" y="60" width="60" height="30" as="geometry" />
        </mxCell>
        <mxCell id="gfmQNd7Zofw6Jux4Y-8F-3" value="Orchestrator" style="rounded=0;whiteSpace=wrap;html=1;fillColor=#d5e8d4;strokeColor=#82b366;" vertex="1" parent="1">
          <mxGeometry x="430" y="180" width="80" height="270" as="geometry" />
        </mxCell>
        <mxCell id="gfmQNd7Zofw6Jux4Y-8F-5" value="" style="edgeStyle=orthogonalEdgeStyle;rounded=0;orthogonalLoop=1;jettySize=auto;html=1;" edge="1" parent="1" source="gfmQNd7Zofw6Jux4Y-8F-4" target="gfmQNd7Zofw6Jux4Y-8F-1">
          <mxGeometry relative="1" as="geometry" />
        </mxCell>
        <mxCell id="gfmQNd7Zofw6Jux4Y-8F-6" value="RegistrationEvent" style="edgeLabel;html=1;align=center;verticalAlign=middle;resizable=0;points=[];" vertex="1" connectable="0" parent="gfmQNd7Zofw6Jux4Y-8F-5">
          <mxGeometry x="-0.1327" y="8" relative="1" as="geometry">
            <mxPoint as="offset" />
          </mxGeometry>
        </mxCell>
        <mxCell id="gfmQNd7Zofw6Jux4Y-8F-4" value="Event Streaming Cloud Service" style="rounded=0;whiteSpace=wrap;html=1;fillColor=#fff2cc;strokeColor=#d6b656;" vertex="1" parent="1">
          <mxGeometry x="-20" y="215" width="80" height="320" as="geometry" />
        </mxCell>
        <mxCell id="gfmQNd7Zofw6Jux4Y-8F-12" value="InitialDataLoader" style="rounded=0;whiteSpace=wrap;html=1;fillColor=#d5e8d4;strokeColor=#82b366;" vertex="1" parent="1">
          <mxGeometry x="200" y="290" width="120" height="50" as="geometry" />
        </mxCell>
        <mxCell id="gfmQNd7Zofw6Jux4Y-8F-13" value="" style="endArrow=classic;html=1;rounded=0;exitX=1;exitY=0.5;exitDx=0;exitDy=0;entryX=0;entryY=0.5;entryDx=0;entryDy=0;" edge="1" parent="1" source="gfmQNd7Zofw6Jux4Y-8F-12" target="gfmQNd7Zofw6Jux4Y-8F-3">
          <mxGeometry width="50" height="50" relative="1" as="geometry">
            <mxPoint x="400" y="370" as="sourcePoint" />
            <mxPoint x="450" y="320" as="targetPoint" />
          </mxGeometry>
        </mxCell>
        <mxCell id="gfmQNd7Zofw6Jux4Y-8F-14" value="AirlineInterface" style="rounded=0;whiteSpace=wrap;html=1;fillColor=#f8cecc;strokeColor=#b85450;" vertex="1" parent="1">
          <mxGeometry x="1015" y="205" width="120" height="50" as="geometry" />
        </mxCell>
        <mxCell id="gfmQNd7Zofw6Jux4Y-8F-15" value="GDS(Apollo/SABRE)" style="rounded=0;whiteSpace=wrap;html=1;fillColor=#f8cecc;strokeColor=#b85450;" vertex="1" parent="1">
          <mxGeometry x="1015" y="400" width="120" height="50" as="geometry" />
        </mxCell>
        <mxCell id="gfmQNd7Zofw6Jux4Y-8F-17" value="HotelInterface" style="rounded=0;whiteSpace=wrap;html=1;fillColor=#f8cecc;strokeColor=#b85450;" vertex="1" parent="1">
          <mxGeometry x="1015" y="275" width="120" height="50" as="geometry" />
        </mxCell>
        <mxCell id="gfmQNd7Zofw6Jux4Y-8F-18" value="EmailPoller" style="rounded=0;whiteSpace=wrap;html=1;fillColor=#d5e8d4;strokeColor=#82b366;" vertex="1" parent="1">
          <mxGeometry x="680" y="490" width="120" height="50" as="geometry" />
        </mxCell>
        <mxCell id="gfmQNd7Zofw6Jux4Y-8F-21" value="" style="endArrow=classic;html=1;rounded=0;entryX=0.017;entryY=0.459;entryDx=0;entryDy=0;entryPerimeter=0;" edge="1" parent="1" target="gfmQNd7Zofw6Jux4Y-8F-20">
          <mxGeometry width="50" height="50" relative="1" as="geometry">
            <mxPoint x="510" y="320" as="sourcePoint" />
            <mxPoint x="960" y="320" as="targetPoint" />
          </mxGeometry>
        </mxCell>
        <mxCell id="gfmQNd7Zofw6Jux4Y-8F-38" value="REST API" style="edgeLabel;html=1;align=center;verticalAlign=middle;resizable=0;points=[];" vertex="1" connectable="0" parent="gfmQNd7Zofw6Jux4Y-8F-21">
          <mxGeometry x="-0.2949" y="-2" relative="1" as="geometry">
            <mxPoint as="offset" />
          </mxGeometry>
        </mxCell>
        <mxCell id="gfmQNd7Zofw6Jux4Y-8F-22" value="" style="endArrow=classic;html=1;rounded=0;entryX=0.5;entryY=0;entryDx=0;entryDy=0;" edge="1" parent="1" target="gfmQNd7Zofw6Jux4Y-8F-18">
          <mxGeometry width="50" height="50" relative="1" as="geometry">
            <mxPoint x="510" y="415" as="sourcePoint" />
            <mxPoint x="520" y="400" as="targetPoint" />
            <Array as="points">
              <mxPoint x="740" y="415" />
            </Array>
          </mxGeometry>
        </mxCell>
        <mxCell id="gfmQNd7Zofw6Jux4Y-8F-23" value="Mail Exchange Server(GMAIL, Microsoft etc)" style="rounded=0;whiteSpace=wrap;html=1;fillColor=#f8cecc;strokeColor=#b85450;" vertex="1" parent="1">
          <mxGeometry x="1020" y="490" width="110" height="50" as="geometry" />
        </mxCell>
        <mxCell id="gfmQNd7Zofw6Jux4Y-8F-26" value="" style="endArrow=classic;html=1;rounded=0;entryX=0;entryY=0.5;entryDx=0;entryDy=0;exitX=1;exitY=0.5;exitDx=0;exitDy=0;" edge="1" parent="1" source="gfmQNd7Zofw6Jux4Y-8F-18" target="gfmQNd7Zofw6Jux4Y-8F-23">
          <mxGeometry width="50" height="50" relative="1" as="geometry">
            <mxPoint x="790.55" y="415.88" as="sourcePoint" />
            <mxPoint x="870.0000000000002" y="414.1300000000001" as="targetPoint" />
            <Array as="points" />
          </mxGeometry>
        </mxCell>
        <mxCell id="gfmQNd7Zofw6Jux4Y-8F-37" value="REST API" style="edgeLabel;html=1;align=center;verticalAlign=middle;resizable=0;points=[];" vertex="1" connectable="0" parent="gfmQNd7Zofw6Jux4Y-8F-26">
          <mxGeometry x="-0.2761" relative="1" as="geometry">
            <mxPoint x="5" y="-15" as="offset" />
          </mxGeometry>
        </mxCell>
        <mxCell id="gfmQNd7Zofw6Jux4Y-8F-30" value="" style="endArrow=classic;html=1;rounded=0;entryX=0.968;entryY=0.66;entryDx=0;entryDy=0;entryPerimeter=0;dashed=1;exitX=-0.023;exitY=0.6;exitDx=0;exitDy=0;exitPerimeter=0;" edge="1" parent="1" source="gfmQNd7Zofw6Jux4Y-8F-20" target="gfmQNd7Zofw6Jux4Y-8F-3">
          <mxGeometry width="50" height="50" relative="1" as="geometry">
            <mxPoint x="960" y="358" as="sourcePoint" />
            <mxPoint x="560" y="270" as="targetPoint" />
          </mxGeometry>
        </mxCell>
        <mxCell id="gfmQNd7Zofw6Jux4Y-8F-33" value="TripAggregator" style="rounded=0;whiteSpace=wrap;html=1;fillColor=#d5e8d4;strokeColor=#82b366;" vertex="1" parent="1">
          <mxGeometry x="580" y="620" width="120" height="60" as="geometry" />
        </mxCell>
        <mxCell id="gfmQNd7Zofw6Jux4Y-8F-36" value="" style="endArrow=classic;html=1;rounded=0;entryX=0;entryY=0.5;entryDx=0;entryDy=0;exitX=0.5;exitY=1;exitDx=0;exitDy=0;" edge="1" parent="1" source="gfmQNd7Zofw6Jux4Y-8F-33" target="gfmQNd7Zofw6Jux4Y-8F-54">
          <mxGeometry width="50" height="50" relative="1" as="geometry">
            <mxPoint x="700" y="650" as="sourcePoint" />
            <mxPoint x="830" y="649.192546583851" as="targetPoint" />
            <Array as="points">
              <mxPoint x="640" y="810" />
            </Array>
          </mxGeometry>
        </mxCell>
        <mxCell id="gfmQNd7Zofw6Jux4Y-8F-59" value="Pushes data to Trip&amp;nbsp;&lt;br&gt;No SQL DB" style="edgeLabel;html=1;align=center;verticalAlign=middle;resizable=0;points=[];" vertex="1" connectable="0" parent="gfmQNd7Zofw6Jux4Y-8F-36">
          <mxGeometry x="-0.1766" relative="1" as="geometry">
            <mxPoint as="offset" />
          </mxGeometry>
        </mxCell>
        <mxCell id="gfmQNd7Zofw6Jux4Y-8F-41" value="Messaging Queue Cloud Service" style="rounded=0;whiteSpace=wrap;html=1;fillColor=#ffe6cc;strokeColor=#d79b00;" vertex="1" parent="1">
          <mxGeometry x="410" y="512" width="120" height="60" as="geometry" />
        </mxCell>
        <mxCell id="gfmQNd7Zofw6Jux4Y-8F-44" value="" style="endArrow=classic;html=1;rounded=0;exitX=0.5;exitY=1;exitDx=0;exitDy=0;entryX=0.5;entryY=0;entryDx=0;entryDy=0;" edge="1" parent="1" source="gfmQNd7Zofw6Jux4Y-8F-3" target="gfmQNd7Zofw6Jux4Y-8F-41">
          <mxGeometry width="50" height="50" relative="1" as="geometry">
            <mxPoint x="540" y="410" as="sourcePoint" />
            <mxPoint x="590" y="360" as="targetPoint" />
          </mxGeometry>
        </mxCell>
        <mxCell id="gfmQNd7Zofw6Jux4Y-8F-45" value="" style="endArrow=classic;html=1;rounded=0;exitX=0.5;exitY=1;exitDx=0;exitDy=0;entryX=0;entryY=0.5;entryDx=0;entryDy=0;" edge="1" parent="1" source="gfmQNd7Zofw6Jux4Y-8F-41" target="gfmQNd7Zofw6Jux4Y-8F-33">
          <mxGeometry width="50" height="50" relative="1" as="geometry">
            <mxPoint x="530" y="540.23" as="sourcePoint" />
            <mxPoint x="710" y="540.23" as="targetPoint" />
            <Array as="points">
              <mxPoint x="470" y="650" />
            </Array>
          </mxGeometry>
        </mxCell>
        <mxCell id="gfmQNd7Zofw6Jux4Y-8F-46" value="CarlineInterface" style="rounded=0;whiteSpace=wrap;html=1;fillColor=#f8cecc;strokeColor=#b85450;" vertex="1" parent="1">
          <mxGeometry x="1015" y="335" width="120" height="50" as="geometry" />
        </mxCell>
        <mxCell id="gfmQNd7Zofw6Jux4Y-8F-51" value="3rd Party Systems" style="text;html=1;strokeColor=none;fillColor=none;align=center;verticalAlign=middle;whiteSpace=wrap;rounded=0;fontSize=15;" vertex="1" parent="1">
          <mxGeometry x="1017.5" y="150" width="115" height="30" as="geometry" />
        </mxCell>
        <mxCell id="gfmQNd7Zofw6Jux4Y-8F-54" value="TripMicroservice" style="rounded=0;whiteSpace=wrap;html=1;fillColor=#d5e8d4;strokeColor=#82b366;" vertex="1" parent="1">
          <mxGeometry x="700" y="780" width="120" height="60" as="geometry" />
        </mxCell>
        <mxCell id="gfmQNd7Zofw6Jux4Y-8F-55" value="LanguageTranslation&lt;br&gt;Cloud Service" style="rounded=0;whiteSpace=wrap;html=1;fillColor=#f8cecc;strokeColor=#b85450;" vertex="1" parent="1">
          <mxGeometry x="1017.5" y="620" width="120" height="60" as="geometry" />
        </mxCell>
        <mxCell id="gfmQNd7Zofw6Jux4Y-8F-56" value="" style="endArrow=classic;html=1;rounded=0;exitX=1;exitY=0.5;exitDx=0;exitDy=0;entryX=0;entryY=0.5;entryDx=0;entryDy=0;" edge="1" parent="1" source="gfmQNd7Zofw6Jux4Y-8F-33" target="gfmQNd7Zofw6Jux4Y-8F-55">
          <mxGeometry width="50" height="50" relative="1" as="geometry">
            <mxPoint x="780" y="530" as="sourcePoint" />
            <mxPoint x="830" y="480" as="targetPoint" />
          </mxGeometry>
        </mxCell>
        <mxCell id="gfmQNd7Zofw6Jux4Y-8F-57" value="" style="endArrow=classic;html=1;rounded=0;exitX=0;exitY=0.75;exitDx=0;exitDy=0;entryX=1;entryY=0.75;entryDx=0;entryDy=0;strokeColor=default;dashed=1;" edge="1" parent="1" source="gfmQNd7Zofw6Jux4Y-8F-55" target="gfmQNd7Zofw6Jux4Y-8F-33">
          <mxGeometry width="50" height="50" relative="1" as="geometry">
            <mxPoint x="740" y="490" as="sourcePoint" />
            <mxPoint x="790" y="440" as="targetPoint" />
          </mxGeometry>
        </mxCell>
        <mxCell id="gfmQNd7Zofw6Jux4Y-8F-58" value="" style="endArrow=classic;html=1;rounded=0;exitX=0;exitY=0.75;exitDx=0;exitDy=0;strokeColor=default;dashed=1;" edge="1" parent="1">
          <mxGeometry width="50" height="50" relative="1" as="geometry">
            <mxPoint x="1020" y="530" as="sourcePoint" />
            <mxPoint x="800" y="530" as="targetPoint" />
          </mxGeometry>
        </mxCell>
      </root>
    </mxGraphModel>
  </diagram>
</mxfile>
